<?xml version="1.0" standalone="no"?>
<!DOCTYPE svg PUBLIC "-//W3C//DTD SVG 20010904//EN"
 "http://www.w3.org/TR/2001/REC-SVG-20010904/DTD/svg10.dtd">
<svg version="1.0" xmlns="http://www.w3.org/2000/svg"
 width="16.000000pt" height="16.000000pt" viewBox="0 0 16.000000 16.000000"
 preserveAspectRatio="xMidYMid meet">

<g transform="translate(0.000000,16.000000) scale(0.100000,-0.100000)"
fill="#000000" stroke="none">
<path d="M0 152 c0 -5 13 -20 28 -35 31 -30 53 -25 25 5 -15 17 -14 18 28 18
l43 0 -62 -63 c-34 -34 -62 -66 -62 -70 0 -4 36 -7 80 -7 44 0 80 4 80 8 0 5
-13 20 -28 35 -31 30 -53 25 -25 -5 15 -17 14 -18 -28 -18 l-43 0 62 63 c34
34 62 66 62 70 0 4 -36 7 -80 7 -44 0 -80 -4 -80 -8z"/>
</g>
</svg>
